<?xml version="1.0" encoding="utf-8"?>
<!-- Generator: Adobe Illustrator 26.4.1, SVG Export Plug-In . SVG Version: 6.00 Build 0)  -->
<svg version="1.1" id="Layer_1" xmlns="http://www.w3.org/2000/svg" xmlns:xlink="http://www.w3.org/1999/xlink" x="0px" y="0px"
	 viewBox="0 0 800 800" style="enable-background:new 0 0 800 800;" xml:space="preserve">
<g>
	<g>
		<path d="M0,360.8c0,198.9,161.8,360.8,360.8,360.8c70.5,0,136.3-20.3,192-55.4l110.4,110.4c31.3,31.3,82.1,31.3,113.4,0
			c31.3-31.3,31.3-82.1,0-113.4L666.1,552.7c35.1-55.6,55.4-121.5,55.4-192C721.6,161.8,559.7,0,360.8,0C161.8,0,0,161.8,0,360.8z
			 M80.2,360.8c0-154.7,125.9-280.6,280.6-280.6s280.6,125.9,280.6,280.6S515.5,641.4,360.8,641.4
			C206.1,641.4,80.2,515.5,80.2,360.8z"/>
	</g>
</g>
</svg>
